<?xml version="1.0" encoding="UTF-8"?>
<!-- Generator: Adobe Illustrator 19.2.1, SVG Export Plug-In . SVG Version: 6.00 Build 0)  -->
<svg version="1.1" id="Layer_1" xmlns="http://www.w3.org/2000/svg" xmlns:xlink="http://www.w3.org/1999/xlink" x="0px" y="0px" viewBox="0 0 115.995 150" style="enable-background:new 0 0 115.995 150;" xml:space="preserve">
<style type="text/css">
	.st0{fill:#BD1E2D;}
	.st1{fill:#FFFFFF;}
	.st2{fill:#E5E6E7;}
	.st3{fill:#C32C3B;}
	.st4{fill:#8D180F;}
	.st5{fill:#FEFEFE;}
	.st6{fill:#F0F1F0;}
	.st7{fill:#D0D2D3;}
	.st8{fill:#A2FFA3;}
	.st9{fill:#98F19A;}
	.st10{fill:#C9FFCF;}
	.st11{fill:#BAF0BD;}
	.st12{fill:#569767;}
	.st13{fill:#FFBBF3;}
	.st14{fill:#88DEDE;}
	.st15{fill:#F0F1F1;}
	.st16{fill:#72CED3;}
	.st17{fill:#FFA4F3;}
	.st18{fill:#A6A8AB;}
	.st19{fill:#F1DBBF;}
	.st20{fill:#E0CCB0;}
	.st21{fill:#CAB79C;}
	.st22{fill:#E783B9;}
	.st23{fill:#FFC94D;}
	.st24{fill:#FFD056;}
	.st25{fill:#FFBB15;}
	.st26{fill:#73C6FF;}
	.st27{fill:#73BAFF;}
	.st28{fill:#83CBFF;}
	.st29{fill:#6294BC;}
	.st30{fill:#F26F61;}
	.st31{fill:#FFDB9D;}
	.st32{fill:#E8BC7A;}
	.st33{fill:#FECD85;}
	.st34{fill:#F3F4F4;}
	.st35{fill:#F47B6C;}
	.st36{fill:#E6695C;}
	.st37{fill:#58595B;}
	.st38{fill:#989A9D;}
	.st39{fill:#808184;}
	.st40{fill:#6D6E71;}
	.st41{fill:#4B6984;}
	.st42{fill:#BBBDBF;}
	.st43{fill:#F6F6F6;}
	.st44{fill:#C1C3C4;}
	.st45{fill:#56C681;}
	.st46{fill:#E75C54;}
	.st47{fill:#929497;}
</style>
<g>
	<g>
		<path class="st43" d="M114,6v112L66,32H50V5.79l3.5-3.32c0.89-0.92,2.33-0.92,3.22,0l3.01,3.5l2.99-3.48    c0.89-0.92,2.34-0.92,3.23,0l2.7,3.18l2.67-3.15c0.89-0.92,2.34-0.92,3.23,0l2.61,3.08l2.35-2.82c0.89-0.92,2.34-0.92,3.23,0    l3.12,3.62l3.11-3.62c0.9-0.92,2.34-0.92,3.23,0L94.94,6l2.92-3.42c0.9-0.92,2.34-0.92,3.23,0L104.02,6l2.8-3.28    c0.89-0.92,2.34-0.92,3.23,0L114,6z M104,29c0-7.18-5.82-13-13-13s-13,5.82-13,13s5.82,13,13,13S104,36.18,104,29z"/>
		<polygon class="st7" points="66,32 114,118 66.18,118 66,118   "/>
		<circle class="st43" cx="91" cy="29" r="13"/>
		<path class="st1" d="M66,118v26.21l-3.5,3.32c-0.89,0.92-2.33,0.92-3.22,0l-3.01-3.5l-2.99,3.48c-0.89,0.92-2.34,0.92-3.23,0    l-2.7-3.18l-2.67,3.15c-0.89,0.92-2.34,0.92-3.23,0l-2.61-3.08l-2.35,2.82c-0.89,0.92-2.34,0.92-3.23,0l-3.12-3.62l-3.11,3.62    c-0.9,0.92-2.34,0.92-3.23,0L21.06,144l-2.92,3.42c-0.9,0.92-2.34,0.92-3.23,0L11.98,144l-2.8,3.28c-0.89,0.92-2.34,0.92-3.23,0    L2,144V32h48h16V118z"/>
		<polygon class="st42" points="66,32 66,118 66.18,118 73,118 73,45   "/>
		<g>
			<path class="st1" d="M114,71.375V6l-3.95-3.28c-0.89-0.92-2.34-0.92-3.23,0L104.02,6l-2.93-3.42c-0.89-0.92-2.33-0.92-3.23,0     L94.94,6L92.2,2.78c-0.89-0.92-2.33-0.92-3.23,0L85.86,6.4l-3.12-3.62c-0.89-0.92-2.34-0.92-3.23,0l-2.273,2.728L114,71.375z"/>
		</g>
		<path class="st44" d="M57,43H11c-1.104,0-2-0.896-2-2s0.896-2,2-2h46c1.104,0,2,0.896,2,2S58.104,43,57,43z"/>
		<path class="st44" d="M43,49H11c-1.104,0-2-0.896-2-2s0.896-2,2-2h32c1.104,0,2,0.896,2,2S44.104,49,43,49z"/>
		<path class="st45" d="M57,55h-6c-1.104,0-2-0.896-2-2s0.896-2,2-2h6c1.104,0,2,0.896,2,2S58.104,55,57,55z"/>
		<path class="st44" d="M57,63H11c-1.104,0-2-0.896-2-2s0.896-2,2-2h46c1.104,0,2,0.896,2,2S58.104,63,57,63z"/>
		<path class="st44" d="M32,69H11c-1.104,0-2-0.896-2-2s0.896-2,2-2h21c1.104,0,2,0.896,2,2S33.104,69,32,69z"/>
		<path class="st46" d="M57,75h-6c-1.104,0-2-0.896-2-2s0.896-2,2-2h6c1.104,0,2,0.896,2,2S58.104,75,57,75z"/>
		<path class="st44" d="M57,83H11c-1.104,0-2-0.896-2-2s0.896-2,2-2h46c1.104,0,2,0.896,2,2S58.104,83,57,83z"/>
		<path class="st44" d="M50,89H11c-1.104,0-2-0.896-2-2s0.896-2,2-2h39c1.104,0,2,0.896,2,2S51.104,89,50,89z"/>
		<path class="st46" d="M57,95h-6c-1.104,0-2-0.896-2-2s0.896-2,2-2h6c1.104,0,2,0.896,2,2S58.104,95,57,95z"/>
		<path class="st44" d="M57,103H11c-1.104,0-2-0.896-2-2s0.896-2,2-2h46c1.104,0,2,0.896,2,2S58.104,103,57,103z"/>
		<path class="st44" d="M26,109H11c-1.104,0-2-0.896-2-2s0.896-2,2-2h15c1.104,0,2,0.896,2,2S27.104,109,26,109z"/>
		<path class="st45" d="M57,115h-6c-1.104,0-2-0.896-2-2s0.896-2,2-2h6c1.104,0,2,0.896,2,2S58.104,115,57,115z"/>
		<path class="st44" d="M57,123H11c-1.104,0-2-0.896-2-2s0.896-2,2-2h46c1.104,0,2,0.896,2,2S58.104,123,57,123z"/>
		<path class="st44" d="M39,129H11c-1.104,0-2-0.896-2-2s0.896-2,2-2h28c1.104,0,2,0.896,2,2S40.104,129,39,129z"/>
		<path class="st45" d="M57,135h-6c-1.104,0-2-0.896-2-2s0.896-2,2-2h6c1.104,0,2,0.896,2,2S58.104,135,57,135z"/>
	</g>
	<g>
		<g>
			<path class="st45" d="M91,14c-8.271,0-15,6.729-15,15s6.729,15,15,15s15-6.729,15-15S99.271,14,91,14z M91,40     c-6.065,0-11-4.935-11-11s4.935-11,11-11s11,4.935,11,11S97.065,40,91,40z"/>
			<path class="st45" d="M96.029,22.285c-0.948-0.569-2.176-0.261-2.744,0.686l-4.126,6.875l-1.37-2.741     c-0.494-0.987-1.692-1.389-2.684-0.895c-0.988,0.494-1.389,1.695-0.895,2.684l3,6c0.326,0.653,0.982,1.076,1.712,1.104     C88.949,36,88.974,36,89,36c0.701,0,1.353-0.367,1.715-0.971l6-10C97.283,24.082,96.976,22.854,96.029,22.285z"/>
		</g>
		<path class="st47" d="M116,6.21c0-0.595-0.265-1.159-0.723-1.539L111.4,1.451c-0.801-0.782-1.849-1.211-2.965-1.211    c-0.001,0-0.001,0-0.002,0c-1.157,0-2.241,0.462-3.052,1.3c-0.028,0.03-0.056,0.06-0.083,0.092l-1.281,1.501l-1.408-1.644    c-0.026-0.031-0.054-0.061-0.082-0.09c-0.808-0.834-1.886-1.296-3.036-1.299c-0.005,0-0.008,0-0.013,0    c-1.15,0-2.232,0.458-3.048,1.291c-0.031,0.032-0.062,0.066-0.092,0.1l-1.396,1.636l-1.219-1.433    C93.696,1.662,93.668,1.63,93.638,1.6c-0.808-0.835-1.887-1.297-3.038-1.3c-0.004,0-0.008,0-0.012,0    c-1.151,0-2.234,0.459-3.049,1.292c-0.029,0.031-0.059,0.062-0.086,0.094l-1.596,1.857l-1.604-1.859    c-0.024-0.029-0.05-0.057-0.076-0.084c-0.811-0.838-1.896-1.3-3.054-1.3c-1.157,0-2.242,0.462-3.053,1.3    c-0.033,0.036-0.066,0.072-0.098,0.109l-0.827,0.992l-1.07-1.264c-0.029-0.034-0.059-0.066-0.09-0.098    c-0.811-0.837-1.895-1.299-3.052-1.299c-0.001,0-0.001,0-0.002,0c-1.157,0-2.241,0.462-3.051,1.3    c-0.03,0.031-0.06,0.063-0.088,0.097l-1.146,1.352l-1.175-1.383c-0.027-0.033-0.057-0.064-0.086-0.096    c-0.811-0.838-1.896-1.3-3.054-1.3c-1.157,0-2.242,0.462-3.053,1.3c-0.026,0.028-0.053,0.057-0.078,0.087l-1.475,1.715    l-1.492-1.736c-0.025-0.029-0.052-0.059-0.079-0.086c-0.812-0.838-1.894-1.3-3.048-1.3s-2.236,0.461-2.986,1.239l-3.5,3.32    C48.225,4.927,48,5.451,48,6v24H2c-1.104,0-2,0.896-2,2v112c0,0.595,0.265,1.158,0.723,1.539l3.879,3.221    c0.8,0.781,1.848,1.21,2.964,1.21c1.157,0,2.241-0.461,3.052-1.298c0.029-0.03,0.058-0.062,0.085-0.093l1.281-1.502l1.408,1.644    c0.026,0.031,0.054,0.062,0.082,0.091c0.808,0.834,1.886,1.295,3.036,1.298c0.005,0,0.008,0.001,0.013,0.001    c1.15-0.001,2.232-0.459,3.048-1.291c0.031-0.033,0.062-0.066,0.092-0.101l1.396-1.636l1.219,1.433    c0.028,0.032,0.057,0.064,0.086,0.095c0.807,0.834,1.885,1.296,3.035,1.299c0.005,0,0.009,0.001,0.014,0.001    c1.15-0.001,2.232-0.459,3.048-1.291c0.03-0.031,0.06-0.063,0.087-0.096l1.596-1.857l1.604,1.859    c0.024,0.029,0.051,0.058,0.077,0.085c0.811,0.838,1.895,1.3,3.052,1.3c1.158,0,2.242-0.462,3.053-1.3    c0.034-0.035,0.067-0.072,0.099-0.11l0.827-0.991l1.07,1.265c0.029,0.033,0.059,0.066,0.09,0.099    c0.811,0.837,1.895,1.298,3.052,1.298s2.241-0.461,3.052-1.298c0.031-0.032,0.061-0.064,0.089-0.099l1.146-1.352l1.174,1.383    c0.028,0.032,0.057,0.064,0.087,0.096c0.811,0.838,1.895,1.3,3.052,1.3c1.158,0,2.242-0.462,3.053-1.3    c0.027-0.028,0.054-0.058,0.079-0.087l1.474-1.715l1.493,1.735c0.025,0.03,0.052,0.059,0.079,0.087    c0.811,0.838,1.893,1.299,3.048,1.299c1.154,0,2.236-0.461,2.986-1.238l3.5-3.32c0.397-0.378,0.623-0.902,0.623-1.451V120h46    c0,0,0.001,0,0.001,0s0.001,0,0.001,0c0.003,0,0.005-0.001,0.008-0.001c0.154-0.001,0.302-0.022,0.446-0.056    c0.042-0.01,0.082-0.026,0.123-0.038c0.114-0.035,0.223-0.078,0.327-0.131c0.022-0.011,0.047-0.015,0.069-0.028    c0.023-0.013,0.041-0.031,0.063-0.044c0.062-0.038,0.121-0.08,0.178-0.124c0.049-0.038,0.098-0.076,0.143-0.118    c0.047-0.044,0.09-0.091,0.133-0.14c0.044-0.049,0.087-0.099,0.125-0.152c0.037-0.051,0.068-0.104,0.1-0.158    c0.033-0.056,0.066-0.112,0.093-0.171c0.027-0.058,0.048-0.117,0.069-0.177c0.022-0.062,0.043-0.124,0.058-0.189    c0.014-0.059,0.024-0.119,0.033-0.18c0.011-0.072,0.019-0.143,0.022-0.216c0.001-0.026,0.008-0.051,0.008-0.077V6.21z M52,6.859    l2.938-2.788c0.096-0.1,0.223-0.107,0.322-0.022l2.954,3.436c0.76,0.884,2.273,0.882,3.033-0.001l2.935-3.415    c0.092-0.078,0.215-0.077,0.305-0.002l2.64,3.108c0.38,0.448,0.938,0.706,1.524,0.706h0.001c0.587,0,1.145-0.259,1.524-0.707    l2.608-3.077c0.09-0.073,0.213-0.074,0.303,0l2.547,3.006c0.381,0.448,0.938,0.707,1.526,0.707c0.003,0,0.005,0,0.008,0    c0.591-0.002,1.15-0.266,1.528-0.719l2.282-2.737c0.091-0.074,0.213-0.07,0.301,0.005l3.066,3.557    c0.38,0.441,0.933,0.694,1.515,0.694c0,0,0.001,0,0.002,0c0.582,0,1.136-0.255,1.515-0.697l3.051-3.55    c0.05-0.042,0.104-0.063,0.161-0.063h0.001c0.054,0,0.102,0.019,0.146,0.056l2.681,3.15c0.38,0.446,0.937,0.703,1.521,0.704    c0.001,0,0.001,0,0.002,0c0.585,0,1.141-0.256,1.521-0.701l2.856-3.346c0.05-0.042,0.104-0.062,0.161-0.062    c0.055,0,0.104,0.019,0.149,0.058l2.873,3.354c0.38,0.443,0.935,0.699,1.519,0.699c0.001,0,0.001,0,0.002,0    c0.584,0,1.14-0.257,1.52-0.702l2.741-3.211c0.098-0.083,0.233-0.077,0.33,0.023c0.051,0.052,0.104,0.102,0.16,0.148L112,7.149    v103.165L67.746,31.025c-0.013-0.023-0.031-0.041-0.044-0.063c-0.038-0.062-0.08-0.121-0.125-0.178    c-0.038-0.049-0.076-0.098-0.117-0.142c-0.044-0.047-0.092-0.091-0.14-0.134c-0.049-0.043-0.098-0.086-0.15-0.124    c-0.052-0.037-0.106-0.07-0.161-0.102c-0.055-0.032-0.11-0.064-0.167-0.091c-0.06-0.028-0.121-0.05-0.184-0.072    c-0.06-0.021-0.119-0.041-0.181-0.056c-0.062-0.015-0.124-0.025-0.188-0.034c-0.069-0.01-0.138-0.018-0.208-0.021    C66.053,30.007,66.027,30,66,30H52V6.859z M64,143.351l-2.938,2.789c-0.097,0.1-0.223,0.104-0.321,0.022l-2.954-3.436    c-0.76-0.885-2.273-0.883-3.033,0l-2.935,3.415c-0.09,0.076-0.213,0.078-0.305,0.002l-2.64-3.108    c-0.38-0.447-0.938-0.705-1.524-0.705h-0.001c-0.588,0-1.145,0.259-1.524,0.707l-2.608,3.077c-0.09,0.074-0.213,0.074-0.303,0    l-2.547-3.007c-0.381-0.448-0.938-0.707-1.526-0.707c-0.003,0-0.005,0-0.008,0c-0.591,0.002-1.15,0.266-1.528,0.72l-2.281,2.736    c-0.092,0.07-0.211,0.07-0.303-0.006l-3.065-3.557c-0.38-0.44-0.933-0.694-1.515-0.694c0,0-0.001,0-0.002,0    c-0.582,0-1.136,0.255-1.515,0.696l-3.051,3.551c-0.05,0.042-0.104,0.063-0.162,0.063c-0.054-0.001-0.102-0.019-0.146-0.057    l-2.681-3.149c-0.38-0.446-0.937-0.704-1.521-0.704c-0.001,0-0.001,0-0.002,0c-0.585,0-1.141,0.256-1.521,0.701l-2.856,3.347    c-0.05,0.041-0.104,0.062-0.161,0.062c-0.055-0.001-0.104-0.02-0.149-0.059l-2.873-3.353c-0.38-0.444-0.935-0.699-1.519-0.699    c-0.001,0-0.001,0-0.002,0c-0.585,0.001-1.14,0.257-1.52,0.701l-2.74,3.211c-0.101,0.086-0.234,0.078-0.332-0.023    c-0.05-0.052-0.104-0.101-0.159-0.147L4,143.062V34h60V143.351z M68,39.686L110.593,116H68V39.686z"/>
	</g>
</g>
</svg>