<?xml version="1.0" encoding="UTF-8" standalone="no"?>
<!-- Generator: Adobe Illustrator 19.2.1, SVG Export Plug-In . SVG Version: 6.00 Build 0)  -->

<svg
   xmlns:dc="http://purl.org/dc/elements/1.1/"
   xmlns:cc="http://creativecommons.org/ns#"
   xmlns:rdf="http://www.w3.org/1999/02/22-rdf-syntax-ns#"
   xmlns:svg="http://www.w3.org/2000/svg"
   xmlns="http://www.w3.org/2000/svg"
   xmlns:sodipodi="http://sodipodi.sourceforge.net/DTD/sodipodi-0.dtd"
   xmlns:inkscape="http://www.inkscape.org/namespaces/inkscape"
   version="1.1"
   id="Layer_1"
   x="0px"
   y="0px"
   viewBox="0 0 128 128"
   xml:space="preserve"
   inkscape:version="0.91 r13725"
   sodipodi:docname="favicon.svg"
   width="128"
   height="128"><metadata
     id="metadata67"><rdf:RDF><cc:Work
         rdf:about=""><dc:format>image/svg+xml</dc:format><dc:type
           rdf:resource="http://purl.org/dc/dcmitype/StillImage" /><dc:title></dc:title></cc:Work></rdf:RDF></metadata><defs
     id="defs65" /><sodipodi:namedview
     pagecolor="#ffffff"
     bordercolor="#666666"
     borderopacity="1"
     objecttolerance="10"
     gridtolerance="10"
     guidetolerance="10"
     inkscape:pageopacity="0"
     inkscape:pageshadow="2"
     inkscape:window-width="1920"
     inkscape:window-height="1022"
     id="namedview63"
     showgrid="false"
     inkscape:zoom="3.1466667"
     inkscape:cx="70.103455"
     inkscape:cy="109.13007"
     inkscape:window-x="0"
     inkscape:window-y="0"
     inkscape:window-maximized="1"
     inkscape:current-layer="g53" /><style
     type="text/css"
     id="style3">
	.st0{fill:#BD1E2D;}
	.st1{fill:#FFFFFF;}
	.st2{fill:#E5E6E7;}
	.st3{fill:#C32C3B;}
	.st4{fill:#8D180F;}
	.st5{fill:#FEFEFE;}
	.st6{fill:#F0F1F0;}
	.st7{fill:#D0D2D3;}
	.st8{fill:#A2FFA3;}
	.st9{fill:#98F19A;}
	.st10{fill:#C9FFCF;}
	.st11{fill:#BAF0BD;}
	.st12{fill:#569767;}
	.st13{fill:#FFBBF3;}
	.st14{fill:#88DEDE;}
	.st15{fill:#F0F1F1;}
	.st16{fill:#72CED3;}
	.st17{fill:#FFA4F3;}
	.st18{fill:#A6A8AB;}
	.st19{fill:#F1DBBF;}
	.st20{fill:#E0CCB0;}
	.st21{fill:#CAB79C;}
	.st22{fill:#E783B9;}
	.st23{fill:#FFC94D;}
	.st24{fill:#FFD056;}
	.st25{fill:#FFBB15;}
	.st26{fill:#73C6FF;}
	.st27{fill:#73BAFF;}
	.st28{fill:#83CBFF;}
	.st29{fill:#6294BC;}
	.st30{fill:#F26F61;}
	.st31{fill:#FFDB9D;}
	.st32{fill:#E8BC7A;}
	.st33{fill:#FECD85;}
	.st34{fill:#F3F4F4;}
	.st35{fill:#F47B6C;}
	.st36{fill:#E6695C;}
	.st37{fill:#58595B;}
	.st38{fill:#989A9D;}
	.st39{fill:#808184;}
	.st40{fill:#6D6E71;}
	.st41{fill:#4B6984;}
	.st42{fill:#BBBDBF;}
	.st43{fill:#F6F6F6;}
	.st44{fill:#C1C3C4;}
	.st45{fill:#56C681;}
	.st46{fill:#E75C54;}
	.st47{fill:#929497;}
</style><g
     id="g5"
     transform="translate(0,-22)"><g
       id="g53"><g
         id="g55"
         transform="matrix(4.1333333,0,0,4.1333333,-312.13333,-33.866666)"><path
           class="st45"
           d="m 91,14 c -8.271,0 -15,6.729 -15,15 0,8.271 6.729,15 15,15 8.271,0 15,-6.729 15,-15 0,-8.271 -6.729,-15 -15,-15 z m 0,26 c -6.065,0 -11,-4.935 -11,-11 0,-6.065 4.935,-11 11,-11 6.065,0 11,4.935 11,11 0,6.065 -4.935,11 -11,11 z"
           id="path57"
           inkscape:connector-curvature="0"
           style="fill:#56c681" /><path
           class="st45"
           d="m 96.029,22.285 c -0.948,-0.569 -2.176,-0.261 -2.744,0.686 l -4.126,6.875 -1.37,-2.741 c -0.494,-0.987 -1.692,-1.389 -2.684,-0.895 -0.988,0.494 -1.389,1.695 -0.895,2.684 l 3,6 c 0.326,0.653 0.982,1.076 1.712,1.104 C 88.949,36 88.974,36 89,36 c 0.701,0 1.353,-0.367 1.715,-0.971 l 6,-10 c 0.568,-0.947 0.261,-2.175 -0.686,-2.744 z"
           id="path59"
           inkscape:connector-curvature="0"
           style="fill:#56c681" /></g></g></g></svg>